<svg xmlns="http://www.w3.org/2000/svg" viewBox="0 0 32 32">
  <defs>
    <linearGradient id="beeGradientSmall" x1="0%" y1="0%" x2="100%" y2="0%">
      <stop offset="0%" style="stop-color:#ffd700;stop-opacity:1" />
      <stop offset="100%" style="stop-color:#ffed4e;stop-opacity:1" />
    </linearGradient>
    <radialGradient id="flameGradientSmall" cx="50%" cy="50%" r="50%">
      <stop offset="0%" style="stop-color:#ff4757;stop-opacity:1" />
      <stop offset="100%" style="stop-color:#ff8c42;stop-opacity:0.7" />
    </radialGradient>
  </defs>
  
  <!-- Enhanced rocket flames -->
  <path d="M2 18 Q5 21 8 18 Q11 23 14 18" fill="url(#flameGradientSmall)" opacity="0.9"/>
  <path d="M1 20 Q4 22 7 20 Q10 24 13 20" fill="#ff6b35" opacity="0.7"/>
  
  <!-- Wings positioned behind the bee body - made bigger for better visibility -->
  <ellipse cx="18" cy="11" rx="4.5" ry="2.5" fill="#ffffff" opacity="0.95" stroke="#b3d9ff" stroke-width="0.4" transform="rotate(-18 18 11)"/>
  <ellipse cx="22" cy="11" rx="4.5" ry="2.5" fill="#ffffff" opacity="0.95" stroke="#b3d9ff" stroke-width="0.4" transform="rotate(18 22 11)"/>
  <ellipse cx="17" cy="10" rx="3" ry="1.5" fill="#e6f3ff" opacity="0.85" stroke="#cce7ff" stroke-width="0.3" transform="rotate(-22 17 10)"/>
  <ellipse cx="23" cy="10" rx="3" ry="1.5" fill="#e6f3ff" opacity="0.85" stroke="#cce7ff" stroke-width="0.3" transform="rotate(22 23 10)"/>
  
  <!-- Wing details for better visibility -->
  <path d="M15 9 Q18 7 22 12" stroke="#b3d9ff" stroke-width="0.4" fill="none" opacity="0.8"/>
  <path d="M25 9 Q22 7 18 12" stroke="#b3d9ff" stroke-width="0.4" fill="none" opacity="0.8"/>
  
  <!-- Main bee body with gradient (now in front of wings) -->
  <ellipse cx="20" cy="17" rx="7" ry="5" fill="url(#beeGradientSmall)" stroke="#e6c200" stroke-width="0.3"/>
  
  <!-- Simplified bee stripes -->
  <rect x="15" y="14" width="10" height="1.5" fill="#2c2c2c" rx="0.75"/>
  <rect x="15" y="17" width="10" height="1.5" fill="#2c2c2c" rx="0.75"/>
  <rect x="15" y="20" width="10" height="1.5" fill="#2c2c2c" rx="0.75"/>
  
  <!-- Bee head moved up and forward for better bee-like appearance -->
  <circle cx="27" cy="13" r="3.5" fill="url(#beeGradientSmall)" stroke="#e6c200" stroke-width="0.3"/>
  
  <!-- Simple eyes with shine positioned on raised head -->
  <ellipse cx="28.5" cy="11.5" rx="0.8" ry="1" fill="#1a1a1a"/>
  <ellipse cx="28.5" cy="14.5" rx="0.8" ry="1" fill="#1a1a1a"/>
  <circle cx="28.8" cy="11.2" r="0.25" fill="#ffffff"/>
  <circle cx="28.8" cy="14.2" r="0.25" fill="#ffffff"/>
  
  <!-- Antennae on raised head -->
  <line x1="25.5" y1="10" x2="26.5" y2="7.5" stroke="#2c2c2c" stroke-width="0.8" stroke-linecap="round"/>
  <line x1="28.5" y1="10" x2="29.5" y2="7.5" stroke="#2c2c2c" stroke-width="0.8" stroke-linecap="round"/>
  <circle cx="26.5" cy="7.5" r="0.5" fill="#2c2c2c"/>
  <circle cx="29.5" cy="7.5" r="0.5" fill="#2c2c2c"/>
  
  <!-- Small motion line -->
  <line x1="8" y1="17" x2="12" y2="17" stroke="#ff6b35" stroke-width="1.5" opacity="0.6" stroke-linecap="round"/>
</svg> 