<svg xmlns="http://www.w3.org/2000/svg" viewBox="0 0 100 100"><defs><radialGradient id="prefix__b" cx="50%" cy="50%" r="50%"><stop offset="0%" stop-color="#ff4757"/><stop offset="50%" stop-color="#ff6b35" stop-opacity=".9"/><stop offset="100%" stop-color="#ff8c42" stop-opacity=".6"/></radialGradient><radialGradient id="prefix__c" cx="30%" cy="30%" r="70%"><stop offset="0%" stop-color="#fff" stop-opacity=".9"/><stop offset="100%" stop-color="#e6f3ff" stop-opacity=".6"/></radialGradient><linearGradient id="prefix__a" x1="0%" y1="0%" x2="100%" y2="0%"><stop offset="0%" stop-color="gold"/><stop offset="100%" stop-color="#ffed4e"/></linearGradient></defs><ellipse cx="55" cy="50" rx="18" ry="12" fill="url(#prefix__a)" stroke="#e6c200" stroke-width=".5"/><path d="M8 58q7 7 14 0 6 12 13 0 7 8 13 0" fill="url(#prefix__b)" opacity=".9"/><path d="M5 62q7 6 13 0 7 10 14 0 6 6 13 0" fill="#ff6b35" opacity=".7"/><path d="M10 55q6 7 13 0 7 12 14 0" fill="#ff4757" opacity=".8"/><rect x="42" y="44" width="26" height="2.5" fill="#2c2c2c" rx="1.25"/><rect x="42" y="50" width="26" height="2.5" fill="#2c2c2c" rx="1.25"/><rect x="42" y="56" width="26" height="2.5" fill="#2c2c2c" rx="1.25"/><circle cx="75" cy="42" r="9" fill="url(#prefix__a)" stroke="#e6c200" stroke-width=".5"/><ellipse cx="79" cy="39" rx="2.2" ry="2.8" fill="#1a1a1a"/><ellipse cx="79" cy="45" rx="2.2" ry="2.8" fill="#1a1a1a"/><circle cx="80" cy="38.2" r=".7" fill="#fff" opacity=".9"/><circle cx="80" cy="44.2" r=".7" fill="#fff" opacity=".9"/><ellipse cx="48" cy="32" rx="11" ry="5.5" fill="url(#prefix__c)" opacity=".8" transform="rotate(-25 48 32)"/><ellipse cx="62" cy="32" rx="11" ry="5.5" fill="url(#prefix__c)" opacity=".8" transform="rotate(25 62 32)"/><ellipse cx="46" cy="30" rx="7" ry="3.5" fill="#fff" opacity=".6" transform="rotate(-30 46 30)"/><ellipse cx="64" cy="30" rx="7" ry="3.5" fill="#fff" opacity=".6" transform="rotate(30 64 30)"/><path d="M44 30q6-4 10 2M66 30q-6-4-10 2" stroke="#b3d9ff" stroke-width=".5" fill="none" opacity=".7"/><path stroke="#2c2c2c" stroke-width="1.5" stroke-linecap="round" d="M73 33l2-5M77 33l2-5"/><circle cx="75" cy="28" r="1.3" fill="#2c2c2c"/><circle cx="79" cy="28" r="1.3" fill="#2c2c2c"/><path d="M76 44q2 2 4 0" stroke="#2c2c2c" fill="none" stroke-linecap="round"/><path stroke="#ff8c42" stroke-width="2" opacity=".4" stroke-linecap="round" d="M25 47h10"/><path stroke="#ff6b35" stroke-width="1.5" opacity=".5" stroke-linecap="round" d="M28 52h10"/><path stroke="#ff4757" opacity=".6" stroke-linecap="round" d="M30 57h10"/></svg>